<?xml version="1.0" encoding="UTF-8" standalone="no"?>
<!-- Created with Inkscape (http://www.inkscape.org/) -->

<svg
   sodipodi:docname="shopscrap.svg"
   inkscape:version="1.2.1 (9c6d41e410, 2022-07-14)"
   id="svg30321"
   version="1.1"
   viewBox="0 0 194.67981 194.67969"
   height="194.67969mm"
   width="194.67981mm"
   xmlns:inkscape="http://www.inkscape.org/namespaces/inkscape"
   xmlns:sodipodi="http://sodipodi.sourceforge.net/DTD/sodipodi-0.dtd"
   xmlns:xlink="http://www.w3.org/1999/xlink"
   xmlns="http://www.w3.org/2000/svg"
   xmlns:svg="http://www.w3.org/2000/svg">
  <sodipodi:namedview
     id="namedview30323"
     pagecolor="#ffffff"
     bordercolor="#000000"
     borderopacity="0.25"
     inkscape:showpageshadow="2"
     inkscape:pageopacity="0.0"
     inkscape:pagecheckerboard="0"
     inkscape:deskcolor="#d1d1d1"
     inkscape:document-units="mm"
     showgrid="false"
     inkscape:zoom="0.271814"
     inkscape:cx="6923.8523"
     inkscape:cy="1261.8923"
     inkscape:window-width="1280"
     inkscape:window-height="697"
     inkscape:window-x="-8"
     inkscape:window-y="1"
     inkscape:window-maximized="1"
     inkscape:current-layer="layer1" />
  <defs
     id="defs30318">
    <linearGradient
       inkscape:collect="always"
       id="linearGradient24269">
      <stop
         style="stop-color:#bb904e;stop-opacity:1;"
         offset="0"
         id="stop24265" />
      <stop
         style="stop-color:#efcda0;stop-opacity:1;"
         offset="1"
         id="stop24267" />
    </linearGradient>
    <linearGradient
       inkscape:collect="always"
       id="linearGradient24263">
      <stop
         style="stop-color:#c5b98d;stop-opacity:1;"
         offset="0"
         id="stop24259" />
      <stop
         style="stop-color:#e09336;stop-opacity:1;"
         offset="1"
         id="stop24261" />
    </linearGradient>
    <linearGradient
       inkscape:collect="always"
       id="linearGradient23474">
      <stop
         style="stop-color:#6c3a3f;stop-opacity:1;"
         offset="0"
         id="stop23470" />
      <stop
         style="stop-color:#926527;stop-opacity:1;"
         offset="1"
         id="stop23472" />
    </linearGradient>
    <linearGradient
       inkscape:collect="always"
       id="linearGradient12858">
      <stop
         style="stop-color:#eacb97;stop-opacity:1;"
         offset="0"
         id="stop12854" />
      <stop
         style="stop-color:#db8e4d;stop-opacity:1;"
         offset="1"
         id="stop12856" />
    </linearGradient>
    <linearGradient
       inkscape:collect="always"
       id="linearGradient12850">
      <stop
         style="stop-color:#72b3d5;stop-opacity:1;"
         offset="0"
         id="stop12846" />
      <stop
         style="stop-color:#2b719e;stop-opacity:1;"
         offset="1"
         id="stop12848" />
    </linearGradient>
    <linearGradient
       inkscape:collect="always"
       xlink:href="#linearGradient12850"
       id="linearGradient12852"
       x1="1459.1243"
       y1="340.68948"
       x2="1573.9854"
       y2="597.66669"
       gradientUnits="userSpaceOnUse" />
    <linearGradient
       inkscape:collect="always"
       xlink:href="#linearGradient12858"
       id="linearGradient12860"
       x1="1394.88"
       y1="319.27469"
       x2="1585.6661"
       y2="606.42725"
       gradientUnits="userSpaceOnUse" />
    <linearGradient
       inkscape:collect="always"
       xlink:href="#linearGradient23474"
       id="linearGradient20890-4"
       x1="1716.2991"
       y1="362.69141"
       x2="1815.5365"
       y2="473.58908"
       gradientUnits="userSpaceOnUse" />
    <linearGradient
       inkscape:collect="always"
       xlink:href="#linearGradient24269"
       id="linearGradient23466"
       gradientUnits="userSpaceOnUse"
       x1="1716.2991"
       y1="362.69141"
       x2="1815.5365"
       y2="473.58908" />
    <linearGradient
       inkscape:collect="always"
       xlink:href="#linearGradient24263"
       id="linearGradient23468"
       gradientUnits="userSpaceOnUse"
       x1="1705.479"
       y1="369.62195"
       x2="1823.5408"
       y2="465.15024" />
  </defs>
  <g
     inkscape:label="Layer 1"
     inkscape:groupmode="layer"
     id="layer1"
     transform="translate(-1394.8799,-319.27471)">
    <g
       id="g32776"
       inkscape:export-filename="..\..\GMTK-game-jam-2023\ShopkeepGame\assets\icon.svg"
       inkscape:export-xdpi="83.501266"
       inkscape:export-ydpi="83.501266">
      <rect
         style="fill:url(#linearGradient12860);fill-opacity:1;stroke-width:0.264583"
         id="rect9405"
         width="194.6797"
         height="194.6797"
         x="1394.88"
         y="319.27469"
         rx="10"
         ry="10" />
      <rect
         style="fill:url(#linearGradient12852);fill-opacity:1;stroke-width:0.206375"
         id="rect9405-0"
         width="151.85017"
         height="151.85017"
         x="1416.2948"
         y="340.68948"
         rx="7.8000002"
         ry="7.8000002" />
      <path
         id="rect9405-0-4"
         style="fill:#7260cc;fill-opacity:0.235915;stroke-width:0.264241"
         d="m 1589.5597,415.71209 -194.6799,28.55219 v 59.71588 c 0,5.5257 4.4601,9.97423 10.0001,9.97423 h 174.6798 c 5.54,0 10,-4.44853 10,-9.97423 z" />
      <path
         style="fill:#a048c4;fill-opacity:0.348592;stroke-width:5.20287"
         d="m 5362.6006,1851.182 c -4.3599,-4.3599 -6.2435,-32.5826 -6.2435,-93.5526 0,-86.2966 0.1358,-87.3395 11.7065,-89.9335 12.5495,-2.8134 544.9718,-80.8464 551.5045,-80.8298 6.9614,0.018 4.6825,257.2921 -2.3413,264.3159 -9.0032,9.0032 -545.623,9.0032 -554.6262,0 z"
         id="path12118"
         transform="scale(0.26458333)" />
      <path
         sodipodi:type="star"
         style="fill:url(#linearGradient20890-4);fill-opacity:1;stroke-width:0.264583"
         id="path20104-61"
         inkscape:flatsided="true"
         sodipodi:sides="6"
         sodipodi:cx="1755.1564"
         sodipodi:cy="410.22482"
         sodipodi:r1="64.159439"
         sodipodi:r2="55.563702"
         sodipodi:arg1="1.7324177"
         sodipodi:arg2="2.2560165"
         inkscape:rounded="0.1"
         inkscape:randomized="0"
         d="m 1744.8319,473.54812 c -6.3323,-1.03245 -47.4053,-34.60271 -49.6773,-40.60289 -2.2721,-6.00018 6.2641,-58.35555 10.3244,-63.32329 4.0603,-4.96774 53.6695,-23.75285 60.0018,-22.72041 6.3324,1.03245 47.4053,34.6027 49.6774,40.60288 2.272,6.00018 -6.2642,58.35556 -10.3245,63.3233 -4.0603,4.96773 -53.6694,23.75285 -60.0018,22.72041 z"
         inkscape:transform-center-x="4.7197837e-06"
         inkscape:transform-center-y="-2.4100378e-06"
         transform="matrix(0.606495,0,0,0.606495,430.3871,170.42493)" />
      <path
         sodipodi:type="star"
         style="fill:url(#linearGradient23466);fill-opacity:1;stroke-width:0.264583"
         id="path23458"
         inkscape:flatsided="true"
         sodipodi:sides="6"
         sodipodi:cx="1755.1564"
         sodipodi:cy="410.22482"
         sodipodi:r1="64.159439"
         sodipodi:r2="55.563702"
         sodipodi:arg1="1.7324177"
         sodipodi:arg2="2.2560165"
         inkscape:rounded="0.1"
         inkscape:randomized="0"
         d="m 1744.8319,473.54812 c -6.3323,-1.03245 -47.4053,-34.60271 -49.6773,-40.60289 -2.2721,-6.00018 6.2641,-58.35555 10.3244,-63.32329 4.0603,-4.96774 53.6695,-23.75285 60.0018,-22.72041 6.3324,1.03245 47.4053,34.6027 49.6774,40.60288 2.272,6.00018 -6.2642,58.35556 -10.3245,63.3233 -4.0603,4.96773 -53.6694,23.75285 -60.0018,22.72041 z"
         inkscape:transform-center-x="4.7197837e-06"
         inkscape:transform-center-y="-2.4100378e-06"
         transform="matrix(0.606495,0,0,0.606495,425.06548,165.20554)" />
      <path
         sodipodi:type="star"
         style="fill:#7a5622;fill-opacity:1;stroke-width:0.264583"
         id="path23460"
         inkscape:flatsided="true"
         sodipodi:sides="6"
         sodipodi:cx="1755.1564"
         sodipodi:cy="410.22482"
         sodipodi:r1="64.159439"
         sodipodi:r2="55.563702"
         sodipodi:arg1="1.7324177"
         sodipodi:arg2="2.2560165"
         inkscape:rounded="0.1"
         inkscape:randomized="0"
         d="m 1744.8319,473.54812 c -6.3323,-1.03245 -47.4053,-34.60271 -49.6773,-40.60289 -2.2721,-6.00018 6.2641,-58.35555 10.3244,-63.32329 4.0603,-4.96774 53.6695,-23.75285 60.0018,-22.72041 6.3324,1.03245 47.4053,34.6027 49.6774,40.60288 2.272,6.00018 -6.2642,58.35556 -10.3245,63.3233 -4.0603,4.96773 -53.6694,23.75285 -60.0018,22.72041 z"
         transform="matrix(0.45497,0,0,0.45497,691.01648,227.36554)" />
      <path
         sodipodi:type="star"
         style="fill:url(#linearGradient23468);fill-opacity:1;stroke-width:0.264583"
         id="path23462"
         inkscape:flatsided="true"
         sodipodi:sides="6"
         sodipodi:cx="1755.1564"
         sodipodi:cy="410.22482"
         sodipodi:r1="64.159439"
         sodipodi:r2="55.563702"
         sodipodi:arg1="1.7324177"
         sodipodi:arg2="2.2560165"
         inkscape:rounded="0.1"
         inkscape:randomized="0"
         d="m 1744.8319,473.54812 c -6.3323,-1.03245 -47.4053,-34.60271 -49.6773,-40.60289 -2.2721,-6.00018 6.2641,-58.35555 10.3244,-63.32329 4.0603,-4.96774 53.6695,-23.75285 60.0018,-22.72041 6.3324,1.03245 47.4053,34.6027 49.6774,40.60288 2.272,6.00018 -6.2642,58.35556 -10.3245,63.3233 -4.0603,4.96773 -53.6694,23.75285 -60.0018,22.72041 z"
         inkscape:transform-center-x="6.398019e-05"
         inkscape:transform-center-y="-1.0090359e-05"
         transform="matrix(0.417009,0,0,0.411125,759.26048,247.39554)" />
      <path
         sodipodi:type="star"
         style="fill:#ffffff;fill-opacity:1;stroke-width:0.264583"
         id="path23528"
         inkscape:flatsided="false"
         sodipodi:sides="4"
         sodipodi:cx="1817.7915"
         sodipodi:cy="304.91541"
         sodipodi:r1="24.444223"
         sodipodi:r2="12.222112"
         sodipodi:arg1="1.5989579"
         sodipodi:arg2="2.3843561"
         inkscape:rounded="0.1"
         inkscape:randomized="0"
         d="m 1817.1032,329.34994 c -1.8004,-0.0507 -6.9568,-14.73006 -8.194,-16.03897 -1.2371,-1.30892 -15.6029,-7.28349 -15.5522,-9.08386 0.051,-1.80037 14.73,-6.95677 16.0389,-8.19397 1.309,-1.23719 7.2835,-15.60298 9.0839,-15.55227 1.8004,0.0507 6.9568,14.73006 8.194,16.03897 1.2372,1.30892 15.6029,7.28349 15.5522,9.08386 -0.051,1.80037 -14.73,6.95677 -16.0389,8.19397 -1.3089,1.23719 -7.2835,15.60298 -9.0839,15.55227 z"
         inkscape:transform-center-y="-4.6970671e-05"
         transform="matrix(0.40255974,-0.49200344,0.49200344,0.40255974,573.42437,1156.9704)"
         inkscape:transform-center-x="-7.7561732e-06" />
      <path
         sodipodi:type="star"
         style="fill:#ffffff;fill-opacity:1;stroke-width:0.264583"
         id="path23528-3"
         inkscape:flatsided="false"
         sodipodi:sides="4"
         sodipodi:cx="1817.7915"
         sodipodi:cy="304.91541"
         sodipodi:r1="24.444223"
         sodipodi:r2="12.222112"
         sodipodi:arg1="1.5989579"
         sodipodi:arg2="2.3843561"
         inkscape:rounded="0.1"
         inkscape:randomized="0"
         d="m 1817.1032,329.34994 c -1.8004,-0.0507 -6.9568,-14.73006 -8.194,-16.03897 -1.2371,-1.30892 -15.6029,-7.28349 -15.5522,-9.08386 0.051,-1.80037 14.73,-6.95677 16.0389,-8.19397 1.309,-1.23719 7.2835,-15.60298 9.0839,-15.55227 1.8004,0.0507 6.9568,14.73006 8.194,16.03897 1.2372,1.30892 15.6029,7.28349 15.5522,9.08386 -0.051,1.80037 -14.73,6.95677 -16.0389,8.19397 -1.3089,1.23719 -7.2835,15.60298 -9.0839,15.55227 z"
         inkscape:transform-center-y="0.00015443843"
         transform="matrix(0.27547608,-0.05316549,0.05316549,0.27547608,957.27656,393.44116)"
         inkscape:transform-center-x="-0.00017894924" />
      <path
         style="fill:#000000;fill-opacity:0;stroke-width:0.919747"
         d="m 5564.7345,1405.4734 c -9.0088,3.007 -7.908,14.3411 -12.1812,20.7661 -6.1697,5.1629 -17.4906,9.9565 -14.5159,19.9084 3.0533,8.8989 14.3032,8.3281 21.0314,12.4444 4.9071,6.4987 10.3221,17.4625 20.2919,14.3855 8.5728,-3.3594 7.9025,-14.4302 11.9717,-20.9648 6.3426,-4.6818 16.6423,-9.66 14.3255,-19.2831 -2.4051,-9.2852 -13.5653,-9.1734 -20.5811,-12.5513 -5.0804,-6.4443 -10.3099,-17.4176 -20.3423,-14.7052 z"
         id="path29301"
         transform="scale(0.26458333)" />
      <path
         style="fill:#000000;fill-opacity:0;stroke-width:0.459873"
         d="m 5536.746,1402.0109 c -8.6893,0.9463 -16.4786,5.4447 -24.4948,8.6247 -4.9728,2.1923 -9.9262,4.4308 -14.9438,6.5197 -12.6662,-2.9161 -24.9349,-7.7815 -37.8955,-9.2757 -6.2437,-0.8329 -12.9912,3.4177 -13.4962,9.9951 -0.6024,7.7886 3.6786,14.8379 6.3309,21.8999 2.6857,6.6451 6.1968,13.1149 8.3778,19.865 -2.9689,12.4885 -7.5984,24.632 -9.2693,37.3989 -1.1623,7.0173 4.591,14.4748 11.9468,13.9363 9.5073,-1.2636 18.029,-6.1531 26.8116,-9.7116 4.3025,-1.7787 8.5571,-4.0482 12.9387,-5.4094 12.4645,2.8462 24.516,7.7153 37.2722,9.1471 6.0856,0.8639 12.9799,-2.7273 13.9103,-9.2064 0.9112,-7.6577 -3.4159,-14.6222 -5.9796,-21.5542 -2.8272,-6.9858 -6.4403,-13.7421 -8.7786,-20.8754 2.8209,-12.7515 7.8164,-25.0584 9.2846,-38.0869 0.7339,-6.9923 -4.7407,-13.6992 -12.0151,-13.2671 z"
         id="path29303"
         transform="scale(0.26458333)" />
      <path
         style="fill:#f7f7f7;fill-opacity:0.309859;stroke-width:0.919747"
         d="m 5534.2751,1407.9847 c -13.0595,3.2099 -24.8228,10.9207 -37.679,14.2292 -14.1449,-2.816 -27.9828,-9.4073 -42.5214,-8.7742 -6.5958,2.4818 -2.1382,10.484 -0.6025,15.2699 3.7599,10.419 9.132,20.2957 12.5189,30.7953 -2.6758,13.7223 -9.2136,26.9735 -8.9154,41.1299 1.1345,6.9108 9.4211,5.3438 13.8328,2.8373 10.8629,-3.7211 20.8467,-10.2136 32.097,-12.5665 13.6674,1.9778 26.7197,8.541 40.6755,8.5418 7.4119,-1.671 5.0948,-10.7656 2.7772,-15.7327 -3.6238,-10.3821 -9.7368,-20.1659 -12.1687,-30.7756 2.8121,-13.6269 8.6602,-26.8622 9.0156,-40.8426 -0.2259,-4.7182 -5.4502,-5.1194 -9.03,-4.1118 z"
         id="path32758"
         transform="scale(0.26458333)" />
      <path
         style="fill:#f7f7f7;fill-opacity:0.309859;stroke-width:0.459873"
         d="m 5567.2944,1409.1434 c -5.3103,0.8878 -5.9321,7.1973 -7.4374,11.3509 -1.1219,2.8533 -1.2794,6.402 -3.1578,8.7855 -4.5635,3.7231 -10.2185,6.2984 -13.938,10.9526 -2.5471,3.7992 0.7989,8.4264 4.7851,9.2598 4.5984,1.7011 9.468,2.6815 14.041,4.3748 3.7211,4.6704 6.6525,10.5759 11.2974,14.6503 3.7655,2.6418 8.4045,-0.7336 9.1592,-4.7369 1.8915,-4.7231 2.8049,-10.0278 4.8262,-14.5364 4.8803,-3.7024 10.7585,-6.4741 14.5429,-11.4097 2.2367,-3.5076 -0.6397,-7.8174 -4.3652,-8.5957 -4.7734,-2.0676 -10.154,-2.6054 -14.8012,-4.852 -4.0299,-4.8084 -6.6844,-11.043 -11.946,-14.6917 -0.931,-0.4721 -1.9719,-0.6273 -3.0062,-0.5515 z"
         id="path32760"
         transform="scale(0.26458333)" />
    </g>
  </g>
</svg>
